<?xml version="1.0" encoding="utf-8"?>
<!-- Generator: Adobe Illustrator 27.2.0, SVG Export Plug-In . SVG Version: 6.00 Build 0)  -->
<svg version="1.1" id="Capa_1" xmlns="http://www.w3.org/2000/svg" xmlns:xlink="http://www.w3.org/1999/xlink" x="0px" y="0px"
	 viewBox="0 0 679.3 595.3" style="enable-background:new 0 0 679.3 595.3;" xml:space="preserve">
<style type="text/css">
	.st0{fill:#D93A15;}
	.st1{fill:#FFCF02;}
</style>
<path class="st0" d="M339.8,15.6c91.6,0,183.2,0,274.8,0c19.9,0,35.9,10.5,42.3,28.4c1.7,4.7,2.7,9.9,2.8,14.9
	c0.3,26,0.2,51.9,0.1,77.9c-0.1,24.5-19.3,43.6-43.7,43.7c-23.9,0.1-47.8,0.1-71.7-0.1c-3,0-4.8,0.8-6.6,3.3
	c-24.1,33.3-48.3,66.6-72.5,99.8c-1.2,1.7-2.9,3.5-4.7,4.3c-4.4,2-9.1-0.9-9.8-6.1c-1.3-10.5-2.3-21-3.4-31.5
	c-2.3-21.6-4.5-43.2-6.8-64.8c-0.5-5-0.6-5-5.5-5c-123.6,0-247.2,0-370.9,0c-21.6,0-38.9-13.4-43.6-34c-0.8-3.4-1.1-7-1.1-10.5
	c-0.1-25.1-0.1-50.2,0-75.3c0-26.2,18.8-45,44.9-45.1c43.7-0.1,87.3,0,131,0C243.5,15.6,291.7,15.6,339.8,15.6z"/>
<path class="st0" d="M421.8,460.5c2-3.1,3.6-5.8,5.4-8.5c14.1-20.7,32.2-36.4,56.9-42.7c30.9-7.8,57.6,1.2,80.3,22.5
	c21.4,20,33.3,45.4,38.6,73.9c1.7,9.3,2.3,18.8,2.9,28.2c0.5,7.1-2.4,9.7-9.4,9.7c-46.5,0-92.9,0-139.4,0c-1.7,0-3.3,0-5.3,0
	c0.5,6,1,11.5,1.3,17c0.2,3.6,0.3,7.3,0.3,10.9c0,5.3-2.7,8-8,8.2c-1.1,0-2.2,0-3.3,0c-82.9,0-165.7,0-248.6,0
	c-8.5,0-10.7-2.1-10.4-10.5s0.9-16.7,1.4-25.6c-1.5,0-3,0-4.6,0c-46.3,0-92.7,0-139,0c-8.1,0-10.5-2.2-10.3-10.4
	c0.9-36,11.2-68.6,35.7-95.7c19.3-21.2,43.1-32.9,72.3-30.7c24.4,1.9,44,13.6,60,31.5c5.9,6.7,10.9,14.2,16.5,21.5
	c0.6-0.8,1.3-1.8,2.1-2.9c16.5-23.5,37.1-42.2,64.6-51.6c39.7-13.6,75.7-5.6,108.3,20c11.4,9,20.9,19.8,29.2,31.7
	C420.1,458.2,420.8,459.1,421.8,460.5z"/>
<path class="st0" d="M250.4,309.2c0.3-37.3,31.2-67.5,68.5-67.1c37.5,0.4,67.6,31,67.3,68.4c-0.3,37.7-31,67.6-69.1,67.3
	C280.2,377.5,250.1,346.6,250.4,309.2z"/>
<path class="st0" d="M504.4,290.9c28.6,0,51.9,23.2,52,51.8c0.1,28.9-23.3,52.2-52.4,52.1c-28.5-0.1-51.7-23.5-51.6-52.1
	C452.6,314.1,475.9,290.9,504.4,290.9z"/>
<path class="st0" d="M184.1,342.9c0,28.6-23.3,51.8-51.8,51.9c-28.8,0-52.1-23.2-52.1-52c0.1-28.8,23.4-52,52.1-51.9
	S184.2,314.3,184.1,342.9z"/>
<path class="st1" d="M304.6,139.9c1.1-7.3,2.1-15.2,3.5-23.1c0.5-2.9-0.1-5-2.2-7.1c-5.2-5-10.2-10.4-15.3-15.5
	c-2.4-2.4-3.8-5.1-2.6-8.5c1.1-3.3,3.6-4.6,6.9-5.1c7.7-1.2,15.3-2.5,22.9-4c1.5-0.3,3.3-1.6,4-2.9c3.7-6.7,7.2-13.5,10.7-20.3
	c1.6-3.1,3.7-5.2,7.2-5.2c3.6,0,5.7,2.1,7.2,5.2c3.5,6.8,7,13.6,10.7,20.3c0.7,1.3,2.5,2.6,4,2.9c7.7,1.6,15.5,2.8,23.3,4.1
	c3.1,0.5,5.5,2,6.5,5.1s0.1,5.7-2.1,8c-5.4,5.5-10.8,11.2-16.3,16.6c-1.8,1.7-2.2,3.5-1.8,5.8c1.2,7.2,2.2,14.4,3.3,21.6
	c0.5,3.4,0.4,6.6-2.6,8.9c-3.2,2.4-6.3,1.5-9.6-0.1c-6.7-3.4-13.4-6.8-20.2-9.9c-1.3-0.6-3.3-0.6-4.6,0c-7.3,3.4-14.3,7.1-21.6,10.5
	C310.1,149.6,304.7,146.4,304.6,139.9z"/>
<path class="st1" d="M189.5,139.3c1.1-7.4,2.2-15.5,3.5-23.5c0.4-2.2,0-3.8-1.7-5.5c-5.4-5.3-10.5-10.7-15.8-16.1
	c-2.3-2.4-4-5-2.8-8.4c1.1-3.4,3.8-4.8,7.1-5.4c7.4-1.2,14.8-2.6,22.2-3.7c2.4-0.4,3.8-1.3,4.9-3.6c3.3-6.6,6.9-13.1,10.2-19.7
	c1.6-3.2,3.8-5.5,7.5-5.4c3.5,0.1,5.6,2.3,7.2,5.3c3.4,6.7,7,13.3,10.4,20c1,2.1,2.5,3,4.7,3.3c7.5,1.2,15.1,2.5,22.6,3.8
	c3.1,0.5,5.6,1.8,6.7,4.9c1.1,3.3,0.1,6.1-2.4,8.6c-5.1,5.1-10.1,10.5-15.3,15.5c-2.2,2.1-2.9,4.1-2.4,7c1.2,7.2,2.1,14.4,3.3,21.6
	c0.6,3.4,0,6.4-2.8,8.4c-2.7,2-5.7,1.6-8.6,0.1c-6.8-3.4-13.7-6.7-20.5-10.2c-2.1-1.1-3.7-1-5.7,0c-7,3.6-14.1,7.1-21.2,10.5
	C194.6,149.7,189.3,146.2,189.5,139.3z"/>
<path class="st1" d="M419.8,139.8c1.1-7.1,2.1-14.7,3.4-22.2c0.6-3.4,0.1-5.9-2.6-8.4c-5.2-4.8-9.9-10-14.8-15
	c-2.4-2.4-3.7-5.1-2.7-8.5c1.1-3.5,3.8-4.7,7.2-5.2c7.4-1.2,14.8-2.6,22.2-3.7c2.2-0.4,3.6-1.3,4.7-3.4c3.3-6.7,7-13.3,10.4-20
	c1.5-3,3.7-5.2,7.2-5.2c3.6-0.1,5.7,2.1,7.3,5.1c3.1,6.2,6.6,12.2,9.5,18.4c1.6,3.3,3.6,4.9,7.3,5.4c7.1,0.9,14.1,2.4,21.2,3.5
	c3.3,0.5,5.7,2.1,6.7,5.3c1,3.1-0.3,5.7-2.4,7.9c-5.3,5.5-10.6,11-16.1,16.3c-1.7,1.7-2.3,3.3-1.9,5.8c1.3,7.4,2.2,14.9,3.3,22.3
	c0.5,3.3,0.1,6.3-2.9,8.4c-3,2-5.9,1.4-8.9-0.1c-6.5-3.3-13.1-6.4-19.5-9.8c-2.4-1.2-4.3-1.4-6.7-0.1c-6.8,3.6-13.8,7-20.8,10.4
	C425.2,149.7,419.7,146.1,419.8,139.8z"/>
<path class="st1" d="M158.4,94.2c2.4-2.4,3.8-5.1,2.6-8.5c-1.1-3.2-3.6-4.6-6.9-5.1c-7.7-1.2-15.3-2.5-22.9-4
	c-1.5-0.3-3.2-1.6-4-2.9c-3.7-6.7-7.2-13.5-10.7-20.3c-1.6-3-3.7-5.2-7.2-5.2s-5.7,2.1-7.3,5.2c-3.5,6.8-7,13.6-10.7,20.3
	c-0.7,1.3-2.5,2.6-4,2.9c-7.6,1.5-15.3,2.8-22.9,4c-3.2,0.5-5.8,1.9-6.9,5.1c-1.2,3.4,0.2,6.1,2.6,8.5c5.2,5.2,10.3,10.6,15.6,15.8
	c1.8,1.7,2.5,3.4,2.1,6.1c-1.4,8.1-2.4,16.3-3.6,24.1c0,6.2,5.6,9.5,11.1,6.8c7.1-3.4,14.1-7.1,21.2-10.4c1.5-0.7,3.8-0.7,5.3,0
	c6.8,3.1,13.5,6.6,20.2,10c3.1,1.6,6.2,2.2,9.2-0.1c2.9-2.1,3.2-5.1,2.7-8.5c-1.2-7.5-2.3-15.1-3.2-22.7c-0.2-1.5,0.5-3.5,1.6-4.7
	C147.6,105,153,99.6,158.4,94.2z"/>
<path class="st1" d="M535,140.2c1.2-8.2,2.5-16.5,3.5-24.8c0.2-1.5-0.5-3.6-1.5-4.7c-5.2-5.6-10.6-11-16-16.4
	c-2.4-2.4-3.8-5.1-2.7-8.5s3.8-4.7,7.2-5.3c7.3-1.2,14.6-2.5,21.9-3.6c2.5-0.4,4.1-1.4,5.2-3.7c3.3-6.6,6.8-13.1,10.2-19.7
	c1.5-3,3.7-5.2,7.2-5.3c3.6-0.1,5.7,2.1,7.3,5.1c3.4,6.6,7,13.1,10.2,19.7c1.2,2.5,2.8,3.5,5.5,3.9c7.4,1.1,14.8,2.5,22.2,3.7
	c3.1,0.5,5.5,1.9,6.6,5c1.1,3.2,0,5.9-2.3,8.3c-5.5,5.5-11,11-16.2,16.7c-1.1,1.2-1.8,3.4-1.6,5c0.9,7.7,2.1,15.4,3.3,23
	c0.5,3.3-0.2,6.1-3,8c-2.6,1.9-5.5,1.7-8.3,0.3c-6.9-3.4-13.9-6.8-20.8-10.4c-2.1-1.1-3.7-1-5.7,0.1c-7,3.6-14,7.1-21.2,10.5
	C540.3,149.6,534.9,146.2,535,140.2z"/>
</svg>
