<?xml version="1.0" encoding="UTF-8"?>
<svg id="Capa_2" data-name="Capa 2" xmlns="http://www.w3.org/2000/svg" viewBox="0 0 632.99 809">
  <defs>
    <style>
      .cls-1 {
        fill: #154ca7;
      }

      .cls-2 {
        fill: #ffb600;
      }

      .cls-3 {
        fill: #201c47;
      }

      .cls-4 {
        fill: #faa087;
      }
    </style>
  </defs>
  <g id="Capa_2-2" data-name="Capa 2">
    <g>
      <path class="cls-1" d="m481.05,628.04s-3.03,46.8-4.17,58.98,22.08,44.91,70.03,34.64c0,0,36.54-37.68,52.91-80.63,10.18-26.72,43.39-97.5,30.07-221.58-13.32-124.08-183.27-268.33-381.95-217.52C49.25,252.74-16.97,387.48,3.58,506.52c16.62,96.26,53.31,145.97,69.15,161.46,3.68,3.6,9.18,4.57,13.84,2.39,13.99-6.54,45.27-22.05,45.65-30.16.71-15.19-1.87-15.94-1.9-40.35-.05-35.36,3.62-35.4,3.62-35.4l-.19-9.13,38.25-16.27,277.47,5.42,31.58,83.56"/>
      <path class="cls-1" d="m151.66,776.69s21.84,42.2,258.88,22.6c0,0,3.32-54.99,0-60.7s-152.33-41.68-154.61-39.96c-2.28,1.71-104.27,78.06-104.27,78.06Z"/>
      <path class="cls-4" d="m378.15,126.97c-4.5,16.58-13.39,8.92-13.39,8.92-17.13,7.61-11.04,47.58-14.08,59-3.04,11.42-16.75,17.89-43.77,13.7-27.02-4.19-20.93-31.97-20.93-36.54s-8.37-22.08-11.42-30.83-4.57.76-10.66,0-5.59-17.97-5.59-17.97l8.25-47.11s18.65-12.56,23.22-14.08,45.33,3.43,45.33,3.43l19.38,9.13,23.67,4.95s6.02,11.8,6.02,14.08-6.02,33.33-6.02,33.33Z"/>
      <path class="cls-2" d="m415.03,802.26l-93.77-61.96c-10.79-7.13-24.46-8.63-36.54-4.02l-104.98,40.12c-30.43,11.63-61.47-15.97-52.53-46.7l30.86-106.02c3.55-12.2.72-25.36-7.56-35.19l-71.98-85.39c-20.87-24.75-3.76-62,28.95-63.04l112.84-3.56c12.99-.41,24.91-7.04,31.87-17.73l60.5-92.89c17.54-26.93,59.15-22.35,70.42,7.74l38.88,103.81c4.48,11.95,14.67,21.01,27.26,24.23l109.37,27.98c31.7,8.11,40.31,48.19,14.57,67.82l-88.81,67.72c-10.22,7.8-15.84,20.03-15.02,32.71l7.1,110.19c2.06,31.94-34.24,52.14-61.42,34.18Z"/>
      <path class="cls-3" d="m250.79,80.7s.76,52.14,12.94,45.67c0,0,6.33-.09-3.04-17.13,0,0,1.14-15.99,17.13-18.27s28.17-11.42,34.26-15.99,3.81,10.28,3.81,21.31,40.73-1.9,43.01-2.66,14.46-5.62,16.75,6.9c2.28,12.52-5.71,37.26,6.47,20.51,12.18-16.75,7.61-70.79-2.66-84.88C369.16,22.09,326.15.39,308.64.01s-12.56,9.13-25.12,19.41-21.31,2.28-27.4,17.89-11.8,17.13-5.33,43.39Z"/>
      <path class="cls-4" d="m103.49,658.1s32.73,25.12,40.35,28.55,43.39,4.19,46.82-3.04c3.43-7.23-9.52-5.85-19.79-9.97-10.28-4.11-7.43-12.87-23.51-15.53-16.08-2.66-25.97-2.66-31.68-13.7s-12.18,13.7-12.18,13.7Z"/>
      <path class="cls-4" d="m493.62,704.15s-24.74,18.27-28.17,22.46-32.35,16.75-15.22,24.36c17.13,7.61,36.16,1.14,40.35-8.37s23.6-22.08,21.7-31.97-18.65-6.47-18.65-6.47Z"/>
    </g>
  </g>
</svg>